<svg xmlns="http://www.w3.org/2000/svg" width="256" height="256" viewBox="0 0 1024 1024" role="img" aria-label="Portus Cart for WooCommerce">
  <rect width="1024" height="1024" rx="80" fill="#00053A"/>
  <path d="M 252.014 261.774 C 244.231 264.063, 235.809 272.364, 233.591 279.932 C 231.563 286.853, 231.584 291.003, 233.678 297.647 C 235.670 303.965, 241.003 310.070, 247.741 313.744 C 252.312 316.236, 253.370 316.366, 274.500 317.042 C 286.600 317.429, 297.625 318.208, 299 318.773 C 306.512 321.862, 314.224 330.334, 316.214 337.684 C 316.782 339.783, 317.600 347.350, 318.031 354.500 C 318.462 361.650, 319.555 379.875, 320.459 395 C 321.363 410.125, 322.506 428.575, 322.999 436 C 323.493 443.425, 324.342 456.415, 324.886 464.868 C 325.430 473.320, 326.394 482.545, 327.029 485.368 C 328.462 491.747, 330.067 498.026, 330.769 500 C 331.062 500.825, 331.462 501.950, 331.657 502.500 C 331.852 503.050, 332.285 504.962, 332.619 506.750 C 332.953 508.538, 333.626 510, 334.113 510 C 334.601 510, 335 510.712, 335 511.583 C 335 513.640, 344.287 532.442, 346.073 534 C 346.388 534.275, 346.968 535.175, 347.362 536 C 350.102 541.738, 356.309 549.354, 366.516 559.500 C 379.622 572.529, 390.264 580.207, 404.500 586.906 C 409.450 589.235, 414.281 591.559, 415.236 592.070 C 416.191 592.582, 417.789 593, 418.786 593 C 419.784 593, 421.028 593.358, 421.550 593.796 C 422.981 594.995, 429.308 596.991, 435.228 598.112 C 452.376 601.358, 456.348 601.493, 534.500 601.497 C 612.618 601.500, 616.643 601.363, 633.645 598.132 C 639.882 596.946, 652.372 592.794, 652.833 591.752 C 653.017 591.338, 653.928 591, 654.860 591 C 657.064 591, 671.944 583.455, 679.548 578.482 C 688.117 572.878, 693.527 568.443, 701.486 560.498 C 717.164 544.847, 723.253 535.576, 734.975 509.500 C 735.754 507.768, 736.366 505.950, 737.671 501.500 C 737.832 500.950, 738.231 499.150, 738.557 497.500 C 738.884 495.850, 739.520 493.600, 739.971 492.500 C 744.889 480.505, 744.912 441.213, 740.011 426 C 739.568 424.625, 738.450 420.800, 737.526 417.500 C 736.603 414.200, 735.477 410.600, 735.026 409.500 C 731.953 402.021, 730.543 398.912, 728.221 394.500 C 726.773 391.750, 725.119 388.491, 724.545 387.258 C 723.970 386.025, 723.163 385.012, 722.750 385.008 C 722.337 385.004, 722 384.508, 722 383.907 C 722 383.305, 718.894 378.693, 715.099 373.657 C 705.148 360.454, 691.799 348.119, 678.134 339.500 C 671.252 335.159, 665.859 332, 665.330 332 C 664.983 332, 662.404 330.894, 659.600 329.543 C 653.214 326.466, 640.197 322.122, 633.550 320.850 C 630.772 320.318, 626.025 319.391, 623 318.790 C 619.266 318.048, 577.674 317.573, 493.500 317.311 L 369.500 316.926 365.131 308.039 C 360.642 298.908, 352.036 287.386, 345.944 282.351 C 344.050 280.786, 341.380 278.491, 340.010 277.252 C 338.641 276.014, 336.953 275, 336.260 275 C 335.567 275, 335 274.618, 335 274.152 C 335 273.095, 321.565 266.405, 317.500 265.438 C 315.850 265.045, 314.050 264.390, 313.500 263.982 C 308.407 260.199, 262.924 258.567, 252.014 261.774 M 488.695 387.638 C 487.843 388.490, 487.757 531.203, 488.607 533.418 C 489.123 534.763, 491.449 535, 504.107 535 L 519 535 519 509.111 L 519 483.221 529.750 482.638 C 544.448 481.841, 561.597 478.970, 563 477.072 C 563.275 476.700, 565.075 475.619, 567 474.670 C 574.086 471.177, 577.470 468.322, 582.021 462 C 587.768 454.017, 589.387 447.741, 589.375 433.500 C 589.365 421.153, 587.966 414.470, 584.150 408.538 C 581.558 404.508, 572.668 395, 571.492 395 C 571.151 395, 568.387 393.863, 565.350 392.474 C 562.313 391.085, 557.055 389.440, 553.664 388.817 C 546.852 387.567, 489.802 386.531, 488.695 387.638 M 519 434.906 L 519 456 529.250 455.958 C 540.609 455.912, 546.725 454.266, 551.610 449.941 C 556.062 445.999, 557.292 443.103, 557.787 435.407 C 558.318 427.139, 556.892 423.227, 551.407 417.909 L 547.892 414.500 533.446 414.156 L 519 413.812 519 434.906 M 420 659.615 C 417.062 660.177, 412.874 661.629, 408 663.776 C 393.462 670.180, 381.536 684.224, 375.967 701.500 C 374.302 706.665, 374.302 724.335, 375.967 729.500 C 382.698 750.381, 397.097 764.773, 416.932 770.446 C 428.474 773.748, 445.367 771.841, 457.748 765.839 C 465.463 762.098, 477.862 748.922, 482.534 739.500 L 486.500 731.500 486.500 715.500 L 486.500 699.500 482.543 691.500 C 477.215 680.727, 465.426 668.793, 456 664.629 C 452.425 663.049, 448.646 661.316, 447.602 660.777 C 445.563 659.725, 424.138 658.823, 420 659.615 M 590.500 659.621 C 587.233 660.111, 586.753 660.294, 576.646 664.920 C 565.932 669.823, 555.484 680.771, 549.705 693.151 C 548.767 695.159, 548 697.657, 548 698.701 C 548 699.746, 547.454 701.146, 546.786 701.814 C 545.963 702.637, 545.571 707.052, 545.571 715.500 C 545.571 723.948, 545.963 728.363, 546.786 729.186 C 547.454 729.854, 548.002 731.322, 548.004 732.450 C 548.008 734.498, 550.930 740.837, 554.480 746.500 C 555.514 748.150, 559.394 752.530, 563.101 756.234 C 573.603 766.724, 586.620 772, 602 772 C 613.216 772, 622.824 769.166, 633.500 762.710 C 637.093 760.536, 647.644 749.582, 649.594 746 C 650.643 744.075, 651.725 742.275, 652 742 C 653.460 740.540, 655.037 736.621, 655.613 733.022 C 655.970 730.785, 656.654 728.714, 657.131 728.419 C 658.692 727.454, 658.137 705.323, 656.410 699.688 C 654.816 694.485, 652.939 689.935, 652.002 689 C 651.726 688.725, 650.652 686.925, 649.615 685 C 646.976 680.100, 639.428 672.417, 633.459 668.554 C 628.790 665.533, 626.530 664.395, 618.500 661.020 C 615.482 659.752, 596.089 658.783, 590.500 659.621" fill="#FFF8EB" fill-rule="evenodd"/>
</svg>
